<svg width="1415" height="1416" viewBox="0 0 1415 1416" fill="none" xmlns="http://www.w3.org/2000/svg">
<circle cx="707.107" cy="708" r="495" transform="rotate(-45 707.107 708)" fill="url(#paint0_linear_2_14)" stroke="white" stroke-width="10"/>
<path fill-rule="evenodd" clip-rule="evenodd" d="M670.489 350.086C645.84 363.287 622.688 380.284 601.894 401.077C487.999 514.972 487.999 699.632 601.894 813.527C715.789 927.422 900.45 927.422 1014.34 813.527C1035.14 792.734 1052.14 769.582 1065.34 744.933C1053.82 812.236 1022.09 876.755 970.133 928.711C836.639 1062.2 620.204 1062.2 486.711 928.711C353.218 795.218 353.218 578.782 486.711 445.289C538.666 393.334 603.186 361.599 670.489 350.086Z" fill="#D9D9D9"/>
<path fill-rule="evenodd" clip-rule="evenodd" d="M783.55 343.64C765.494 353.31 748.535 365.76 733.304 380.992C649.875 464.42 649.875 599.685 733.304 683.114C816.733 766.543 951.998 766.543 1035.43 683.114C1050.66 667.883 1063.11 650.924 1072.78 632.868C1064.34 682.168 1041.1 729.429 1003.04 767.487C905.257 865.272 746.716 865.272 648.931 767.487C551.147 669.702 551.147 511.162 648.931 413.377C686.989 375.319 734.25 352.074 783.55 343.64Z" fill="#D9D9D9"/>
<mask id="mask0_2_14" style="mask-type:alpha" maskUnits="userSpaceOnUse" x="223" y="224" width="969" height="969">
<circle cx="707.107" cy="708.107" r="484" fill="#3F3F3F" fill-opacity="0.37"/>
</mask>
<g mask="url(#mask0_2_14)">
<ellipse cx="1013.38" cy="1296.38" rx="851.5" ry="713" transform="rotate(-45 1013.38 1296.38)" fill="url(#paint1_radial_2_14)"/>
</g>
<defs>
<linearGradient id="paint0_linear_2_14" x1="707.107" y1="208" x2="707.107" y2="1208" gradientUnits="userSpaceOnUse">
<stop/>
<stop offset="1"/>
</linearGradient>
<radialGradient id="paint1_radial_2_14" cx="0" cy="0" r="1" gradientUnits="userSpaceOnUse" gradientTransform="translate(1013.38 1296.38) rotate(90) scale(713 851.5)">
<stop offset="0.614583" stop-color="white"/>
<stop offset="1" stop-color="#D9D9D9" stop-opacity="0.4"/>
</radialGradient>
</defs>
</svg>
