<?xml version="1.0" encoding="UTF-8"?>
<!DOCTYPE svg PUBLIC "-//W3C//DTD SVG 1.1//EN" "http://www.w3.org/Graphics/SVG/1.1/DTD/svg11.dtd">
<svg xmlns="http://www.w3.org/2000/svg" version="1.1" width="413px" height="484px" style="shape-rendering:geometricPrecision; text-rendering:geometricPrecision; image-rendering:optimizeQuality; fill-rule:evenodd; clip-rule:evenodd" xmlns:xlink="http://www.w3.org/1999/xlink">
<g><path style="opacity:0.983" fill="#80c363" d="M 243.5,323.5 C 231.188,331.548 218.522,338.215 205.5,343.5C 184.276,334.891 164.943,323.225 147.5,308.5C 108.538,276.343 84.5381,235.843 75.5,187C 76.727,185.413 76.3937,184.079 74.5,183C 76.0774,180.043 75.7441,177.376 73.5,175C 74.1737,173.249 74.507,171.583 74.5,170C 72.3537,153.516 72.6871,137.016 75.5,120.5C 74.6671,118.5 74.8338,116.834 76,115.5C 76.7203,113.888 76.5536,112.388 75.5,111C 77.3582,107.762 78.6915,104.262 79.5,100.5C 79.2907,99.914 78.9574,99.414 78.5,99C 80.9301,95.7221 82.5968,92.0554 83.5,88C 85.3635,84.5915 87.6969,81.5915 90.5,79C 119.624,62.7428 150.957,54.4094 184.5,54C 222.742,50.9706 260.075,55.304 296.5,67C 306.987,70.7359 316.32,76.2359 324.5,83.5C 330.1,93.1204 333.433,103.287 334.5,114C 334.935,118.189 335.935,122.189 337.5,126C 336.978,126.561 336.645,127.228 336.5,128C 340.383,163.747 335.716,197.913 322.5,230.5C 320.936,236.14 318.269,241.64 314.5,247C 314.833,247.333 315.167,247.667 315.5,248C 296.991,277.375 272.991,302.542 243.5,323.5 Z"/></g>
<g><path style="opacity:1" fill="#402e1e" d="M 181.5,74.5 C 211.127,73.0336 240.46,75.2002 269.5,81C 283.475,83.9865 296.308,89.4865 308,97.5C 330.896,187.507 303.729,258.007 226.5,309C 219.821,313.341 212.821,317.175 205.5,320.5C 162.915,299.415 130.748,267.748 109,225.5C 94.2309,187.475 90.8975,148.475 99,108.5C 99.7683,100.777 103.602,95.2766 110.5,92C 133.273,82.1495 156.94,76.3162 181.5,74.5 Z"/></g>
<g><path style="opacity:1" fill="#81bc6e" d="M 205.5,92.5 C 206.436,107.805 206.769,123.138 206.5,138.5C 206.962,146.008 206.462,153.342 205,160.5C 206.114,158.331 205.614,156.498 203.5,155C 203.848,152.945 203.181,150.945 201.5,149C 201.833,148.667 202.167,148.333 202.5,148C 201.313,146.981 200.313,145.814 199.5,144.5C 199.587,142.297 199.587,140.13 199.5,138C 197.384,136.829 196.718,135.329 197.5,133.5C 196.872,131.742 195.872,130.242 194.5,129C 194.957,128.586 195.291,128.086 195.5,127.5C 194.358,125.622 193.358,123.788 192.5,122C 192.833,121.667 193.167,121.333 193.5,121C 191.787,119.622 190.453,117.955 189.5,116C 191.795,115.016 191.461,114.183 188.5,113.5C 187.583,114.127 186.583,114.461 185.5,114.5C 191.13,108.369 196.964,102.369 203,96.5C 203.667,94.5 204.333,92.5 205,90.5C 205.464,91.0944 205.631,91.7611 205.5,92.5 Z"/></g>
<g><path style="opacity:1" fill="#75b562" d="M 206.5,138.5 C 207.498,161.994 207.831,185.661 207.5,209.5C 206.622,206.572 205.289,203.738 203.5,201C 204.5,198.909 203.833,197.243 201.5,196C 201.833,195 202.167,194 202.5,193C 199.833,192.333 199.833,191.667 202.5,191C 199.876,190.424 199.209,189.09 200.5,187C 198.122,186.026 198.456,185.359 201.5,185C 200.167,184.667 198.833,184.333 197.5,184C 198.167,183.667 198.833,183.333 199.5,183C 197.606,181.921 197.273,180.587 198.5,179C 196.096,178.492 195.429,177.325 196.5,175.5C 194.241,172.92 193.574,170.087 194.5,167C 192.193,164.627 190.527,161.794 189.5,158.5C 189.709,157.914 190.043,157.414 190.5,157C 189.328,156.581 188.328,155.915 187.5,155C 187.377,153.211 187.377,151.378 187.5,149.5C 185.862,148.295 185.529,146.962 186.5,145.5C 185.02,140.719 183.02,135.886 180.5,131C 181.815,129.605 181.481,128.605 179.5,128C 179.966,126.701 179.966,125.201 179.5,123.5C 180.723,119.951 182.723,116.951 185.5,114.5C 186.583,114.461 187.583,114.127 188.5,113.5C 191.461,114.183 191.795,115.016 189.5,116C 190.453,117.955 191.787,119.622 193.5,121C 193.167,121.333 192.833,121.667 192.5,122C 193.358,123.788 194.358,125.622 195.5,127.5C 195.291,128.086 194.957,128.586 194.5,129C 195.872,130.242 196.872,131.742 197.5,133.5C 196.718,135.329 197.384,136.829 199.5,138C 199.587,140.13 199.587,142.297 199.5,144.5C 200.313,145.814 201.313,146.981 202.5,148C 202.167,148.333 201.833,148.667 201.5,149C 203.181,150.945 203.848,152.945 203.5,155C 205.614,156.498 206.114,158.331 205,160.5C 206.462,153.342 206.962,146.008 206.5,138.5 Z"/></g>
<g><path style="opacity:1" fill="#509747" d="M 205.5,92.5 C 207.559,95.6106 209.392,98.9439 211,102.5C 240.181,129.354 254.181,162.688 253,202.5C 252.814,205.036 252.314,207.369 251.5,209.5C 249.692,208.683 248.192,209.35 247,211.5C 246.085,210.672 245.419,209.672 245,208.5C 244,209.5 243,210.5 242,211.5C 241.333,207.5 240.667,207.5 240,211.5C 238.467,211.056 236.967,210.723 235.5,210.5C 233.491,212.795 231.325,214.128 229,214.5C 227.47,213.364 226.137,212.364 225,211.5C 224.641,214.544 223.974,214.878 223,212.5C 222.667,213.167 222.333,213.833 222,214.5C 220.381,213.917 218.548,213.917 216.5,214.5C 215.808,213.975 215.308,213.308 215,212.5C 214.492,214.904 213.325,215.571 211.5,214.5C 210.459,216.991 209.626,216.991 209,214.5C 208.768,215.737 208.268,216.737 207.5,217.5C 207.5,214.833 207.5,212.167 207.5,209.5C 207.831,185.661 207.498,161.994 206.5,138.5C 206.769,123.138 206.436,107.805 205.5,92.5 Z"/></g>
<g><path style="opacity:1" fill="#52a548" d="M 192.5,267.5 C 165.273,242.828 154.273,212.162 159.5,175.5C 160.29,174.391 160.79,173.058 161,171.5C 161.706,176.46 163.54,180.96 166.5,185C 165.339,187.721 166.006,190.054 168.5,192C 167.5,194.091 168.167,195.757 170.5,197C 170.075,199.017 170.075,200.851 170.5,202.5C 172.519,205.538 173.686,208.871 174,212.5C 174.5,213.667 175.333,214.5 176.5,215C 176.075,217.017 176.075,218.851 176.5,220.5C 176.901,222.434 177.901,223.934 179.5,225C 178.755,227.405 179.422,229.572 181.5,231.5C 181.291,232.086 180.957,232.586 180.5,233C 182.14,236.686 183.806,240.352 185.5,244C 183.859,245.646 184.193,246.646 186.5,247C 185.353,249.085 186.02,250.585 188.5,251.5C 187.833,252.167 187.167,252.833 186.5,253.5C 187.529,253.296 188.529,253.796 189.5,255C 189.043,255.414 188.709,255.914 188.5,256.5C 190.926,260.065 192.259,263.732 192.5,267.5 Z"/></g>
<g><path style="opacity:1" fill="#69b056" d="M 179.5,123.5 C 179.966,125.201 179.966,126.701 179.5,128C 181.481,128.605 181.815,129.605 180.5,131C 183.02,135.886 185.02,140.719 186.5,145.5C 185.529,146.962 185.862,148.295 187.5,149.5C 187.377,151.378 187.377,153.211 187.5,155C 188.328,155.915 189.328,156.581 190.5,157C 190.043,157.414 189.709,157.914 189.5,158.5C 190.527,161.794 192.193,164.627 194.5,167C 193.574,170.087 194.241,172.92 196.5,175.5C 195.429,177.325 196.096,178.492 198.5,179C 197.273,180.587 197.606,181.921 199.5,183C 198.833,183.333 198.167,183.667 197.5,184C 198.833,184.333 200.167,184.667 201.5,185C 198.456,185.359 198.122,186.026 200.5,187C 199.209,189.09 199.876,190.424 202.5,191C 199.833,191.667 199.833,192.333 202.5,193C 202.167,194 201.833,195 201.5,196C 203.833,197.243 204.5,198.909 203.5,201C 205.289,203.738 206.622,206.572 207.5,209.5C 207.5,212.167 207.5,214.833 207.5,217.5C 207.71,226.05 207.043,234.384 205.5,242.5C 203.993,240.711 202.66,238.711 201.5,236.5C 203.527,233.535 202.527,231.369 198.5,230C 201.167,229.333 201.167,228.667 198.5,228C 199.167,227.667 199.833,227.333 200.5,227C 197.675,225.526 197.342,224.026 199.5,222.5C 197.845,222.198 196.512,220.864 195.5,218.5C 195.36,217.097 195.36,215.597 195.5,214C 194.672,213.085 193.672,212.419 192.5,212C 195.167,211.333 195.167,210.667 192.5,210C 193.4,207.98 193.733,205.647 193.5,203C 192.899,201.395 191.899,200.062 190.5,199C 191.458,197.853 191.125,196.853 189.5,196C 190.517,194.951 190.684,193.784 190,192.5C 189,192.167 188,191.833 187,191.5C 186.845,189.144 186.845,186.811 187,184.5C 186.333,181.833 185.667,181.833 185,184.5C 184.801,182.598 183.967,181.098 182.5,180C 182.421,178.093 182.754,176.093 183.5,174C 182.773,172.601 182.273,171.101 182,169.5C 181.667,170.833 181.333,172.167 181,173.5C 180.869,170.629 179.703,168.295 177.5,166.5C 177.5,164.833 177.5,163.167 177.5,161.5C 173.639,160.402 173.639,159.569 177.5,159C 177.139,156.239 175.805,153.739 173.5,151.5C 174.46,150.188 174.294,148.854 173,147.5C 171.636,148.258 170.469,147.758 169.5,146C 171.953,143.645 171.619,142.812 168.5,143.5C 171.058,136.097 174.725,129.431 179.5,123.5 Z"/></g>
<g><path style="opacity:1" fill="#4c9143" d="M 251.5,209.5 C 247.516,236.156 234.849,257.49 213.5,273.5C 212.833,273.167 212.167,272.833 211.5,272.5C 210.058,270.363 208.891,268.03 208,265.5C 207.477,260.638 206.644,255.972 205.5,251.5C 205.559,248.53 205.559,245.53 205.5,242.5C 207.043,234.384 207.71,226.05 207.5,217.5C 208.268,216.737 208.768,215.737 209,214.5C 209.626,216.991 210.459,216.991 211.5,214.5C 213.325,215.571 214.492,214.904 215,212.5C 215.308,213.308 215.808,213.975 216.5,214.5C 218.548,213.917 220.381,213.917 222,214.5C 222.333,213.833 222.667,213.167 223,212.5C 223.974,214.878 224.641,214.544 225,211.5C 226.137,212.364 227.47,213.364 229,214.5C 231.325,214.128 233.491,212.795 235.5,210.5C 236.967,210.723 238.467,211.056 240,211.5C 240.667,207.5 241.333,207.5 242,211.5C 243,210.5 244,209.5 245,208.5C 245.419,209.672 246.085,210.672 247,211.5C 248.192,209.35 249.692,208.683 251.5,209.5 Z"/></g>
<g><path style="opacity:1" fill="#5ba94e" d="M 205.5,242.5 C 205.559,245.53 205.559,248.53 205.5,251.5C 205.36,259.834 204.027,267.834 201.5,275.5C 197.895,273.528 194.895,270.861 192.5,267.5C 192.259,263.732 190.926,260.065 188.5,256.5C 188.709,255.914 189.043,255.414 189.5,255C 188.529,253.796 187.529,253.296 186.5,253.5C 187.167,252.833 187.833,252.167 188.5,251.5C 186.02,250.585 185.353,249.085 186.5,247C 184.193,246.646 183.859,245.646 185.5,244C 183.806,240.352 182.14,236.686 180.5,233C 180.957,232.586 181.291,232.086 181.5,231.5C 179.422,229.572 178.755,227.405 179.5,225C 177.901,223.934 176.901,222.434 176.5,220.5C 176.075,218.851 176.075,217.017 176.5,215C 175.333,214.5 174.5,213.667 174,212.5C 173.686,208.871 172.519,205.538 170.5,202.5C 170.075,200.851 170.075,199.017 170.5,197C 168.167,195.757 167.5,194.091 168.5,192C 166.006,190.054 165.339,187.721 166.5,185C 163.54,180.96 161.706,176.46 161,171.5C 160.79,173.058 160.29,174.391 159.5,175.5C 160.656,164.198 163.656,153.531 168.5,143.5C 171.619,142.812 171.953,143.645 169.5,146C 170.469,147.758 171.636,148.258 173,147.5C 174.294,148.854 174.46,150.188 173.5,151.5C 175.805,153.739 177.139,156.239 177.5,159C 173.639,159.569 173.639,160.402 177.5,161.5C 177.5,163.167 177.5,164.833 177.5,166.5C 179.703,168.295 180.869,170.629 181,173.5C 181.333,172.167 181.667,170.833 182,169.5C 182.273,171.101 182.773,172.601 183.5,174C 182.754,176.093 182.421,178.093 182.5,180C 183.967,181.098 184.801,182.598 185,184.5C 185.667,181.833 186.333,181.833 187,184.5C 186.845,186.811 186.845,189.144 187,191.5C 188,191.833 189,192.167 190,192.5C 190.684,193.784 190.517,194.951 189.5,196C 191.125,196.853 191.458,197.853 190.5,199C 191.899,200.062 192.899,201.395 193.5,203C 193.733,205.647 193.4,207.98 192.5,210C 195.167,210.667 195.167,211.333 192.5,212C 193.672,212.419 194.672,213.085 195.5,214C 195.36,215.597 195.36,217.097 195.5,218.5C 196.512,220.864 197.845,222.198 199.5,222.5C 197.342,224.026 197.675,225.526 200.5,227C 199.833,227.333 199.167,227.667 198.5,228C 201.167,228.667 201.167,229.333 198.5,230C 202.527,231.369 203.527,233.535 201.5,236.5C 202.66,238.711 203.993,240.711 205.5,242.5 Z"/></g>
<g><path style="opacity:1" fill="#adac8d" d="M 205.5,251.5 C 206.644,255.972 207.477,260.638 208,265.5C 208.891,268.03 210.058,270.363 211.5,272.5C 208.592,273.159 208.258,273.993 210.5,275C 208.623,278.582 207.123,282.415 206,286.5C 205.227,291.252 205.393,295.919 206.5,300.5C 205.038,292.365 203.371,284.031 201.5,275.5C 204.027,267.834 205.36,259.834 205.5,251.5 Z"/></g>
<g><path style="opacity:1" fill="#c4c2a8" d="M 211.5,272.5 C 212.167,272.833 212.833,273.167 213.5,273.5C 212.489,275.372 211.655,277.372 211,279.5C 210.5,286.826 210.334,294.159 210.5,301.5C 208.901,301.768 207.568,301.434 206.5,300.5C 205.393,295.919 205.227,291.252 206,286.5C 207.123,282.415 208.623,278.582 210.5,275C 208.258,273.993 208.592,273.159 211.5,272.5 Z"/></g>
<g><path style="opacity:0.02" fill="#665f3a" d="M 147.5,308.5 C 146.833,309.167 146.833,309.167 147.5,308.5 Z"/></g>
<g><path style="opacity:0.02" fill="#665f3a" d="M 243.5,323.5 C 244.833,324.167 244.833,324.167 243.5,323.5 Z"/></g>
<g><path style="opacity:0.893" fill="#8d704d" d="M 312.5,399.5 C 307.43,404.96 301.263,407.627 294,407.5C 293,408.167 292,408.833 291,409.5C 290.049,409.116 289.216,408.783 288.5,408.5C 283.36,407.512 278.026,407.179 272.5,407.5C 271.167,407.5 269.833,407.5 268.5,407.5C 268.33,406.178 268.663,405.011 269.5,404C 271.246,403.529 272.913,402.862 274.5,402C 273.906,390.077 273.906,377.744 274.5,365C 274.095,364.055 273.428,363.388 272.5,363C 270.833,362.667 269.167,362.333 267.5,362C 266.359,361.259 266.359,360.425 267.5,359.5C 278.819,358.334 290.152,358.168 301.5,359C 311.129,361.946 317.129,368.279 319.5,378C 318.534,380.401 318.534,383.067 319.5,386C 317.572,390.689 315.238,395.189 312.5,399.5 Z M 308.5,379.5 C 308.15,382.041 308.15,384.374 308.5,386.5C 306.941,399.784 299.607,404.951 286.5,402C 285.333,401.5 284.5,400.667 284,399.5C 283.333,387.833 283.333,376.167 284,364.5C 290.156,361.863 296.322,362.696 302.5,367C 306.148,370.778 308.148,374.944 308.5,379.5 Z"/></g>
<g><path style="opacity:0.905" fill="#8c704d" d="M 337.5,408.5 C 334.713,407.523 331.713,407.19 328.5,407.5C 326.167,407.5 323.833,407.5 321.5,407.5C 321.33,406.178 321.663,405.011 322.5,404C 324.218,403.654 325.885,403.154 327.5,402.5C 328.214,399.973 328.88,397.473 329.5,395C 328.362,385.959 328.362,376.959 329.5,368C 328.833,366.333 328.167,364.667 327.5,363C 325.423,362.808 323.423,362.308 321.5,361.5C 321.833,360.833 322.167,360.167 322.5,359.5C 332.483,358.334 342.483,358.168 352.5,359C 355.503,360.166 358.17,361.833 360.5,364C 360.481,366.969 360.314,370.135 360,373.5C 359.226,375.939 357.726,377.773 355.5,379C 359.221,381.345 362.221,384.345 364.5,388C 364.472,400.667 358.639,407.167 347,407.5C 343.916,409.018 340.75,409.351 337.5,408.5 Z M 338.5,362.5 C 341.272,362.22 343.772,362.887 346,364.5C 346.333,364.167 346.667,363.833 347,363.5C 347.9,364.77 349.066,365.77 350.5,366.5C 351.747,369.629 351.747,372.795 350.5,376C 346.451,378.536 342.117,379.036 337.5,377.5C 337.842,372.842 338.175,367.842 338.5,362.5 Z M 353.5,388.5 C 356.423,401.149 351.589,405.482 339,401.5C 338.626,400.584 338.126,399.75 337.5,399C 338.64,394.237 338.64,389.404 337.5,384.5C 342.365,383.059 347.031,383.559 351.5,386C 351.167,386.333 350.833,386.667 350.5,387C 351.737,387.232 352.737,387.732 353.5,388.5 Z"/></g>
<g><path style="opacity:0.831" fill="#462f23" d="M 161.5,373.5 C 162.85,374.483 163.85,375.816 164.5,377.5C 172.982,371.162 179.649,372.662 184.5,382C 185.261,388.381 185.261,394.548 184.5,400.5C 185.725,402.827 187.725,403.994 190.5,404C 189.91,405.509 189.244,407.009 188.5,408.5C 182.785,407.758 177.118,407.424 171.5,407.5C 171.5,406.167 171.5,404.833 171.5,403.5C 173.429,403.769 175.095,403.269 176.5,402C 176.439,396.408 175.939,389.908 175,382.5C 174,381.833 173,381.167 172,380.5C 170.475,380.888 168.808,380.888 167,380.5C 166,381.5 165,382.5 164,383.5C 164.199,389.401 164.199,395.401 164,401.5C 165.44,403.046 167.273,403.879 169.5,404C 168.663,405.011 168.33,406.178 168.5,407.5C 162.5,407.5 156.5,407.5 150.5,407.5C 150.5,406.167 150.5,404.833 150.5,403.5C 151.93,403.579 153.264,403.246 154.5,402.5C 155.833,395.833 155.833,389.167 154.5,382.5C 152.547,381.239 150.547,380.073 148.5,379C 149.167,378.333 149.833,377.667 150.5,377C 154.427,376.276 158.094,375.109 161.5,373.5 Z"/></g>
<g><path style="opacity:0.811" fill="#462f23" d="M 70.5,373.5 C 74.694,373.73 78.194,375.397 81,378.5C 94.4534,370.248 101.953,374.082 103.5,390C 102.821,393.577 102.654,397.411 103,401.5C 104.44,403.046 106.273,403.879 108.5,404C 107.663,405.011 107.33,406.178 107.5,407.5C 101.897,408.287 96.3967,408.621 91,408.5C 90.5,408 90,407.5 89.5,407C 90.3366,405.989 90.67,404.822 90.5,403.5C 91.8221,403.67 92.9887,403.337 94,402.5C 94.2927,396.851 94.4594,391.351 94.5,386C 94,382.833 92.1667,381 89,380.5C 87.4634,381.114 86.13,381.114 85,380.5C 83.7453,381.211 82.5786,382.044 81.5,383C 81.422,388.964 81.5886,395.131 82,401.5C 83.049,403.107 84.549,403.773 86.5,403.5C 86.6602,405.199 86.4935,406.866 86,408.5C 80.2488,407.69 74.4155,407.19 68.5,407C 69.3366,405.989 69.67,404.822 69.5,403.5C 71.4286,403.769 73.0953,403.269 74.5,402C 74.1866,397.57 74.1866,393.07 74.5,388.5C 73.4028,379.867 69.2361,377.867 62,382.5C 61.3333,388.833 61.3333,395.167 62,401.5C 62.9906,402.939 64.324,403.939 66,404.5C 66.6667,405.167 66.6667,405.833 66,406.5C 60.1078,408.583 54.2745,408.916 48.5,407.5C 48.5,406.167 48.5,404.833 48.5,403.5C 50.1439,403.714 51.6439,403.38 53,402.5C 53.1667,399.333 53.3333,396.167 53.5,393C 53.092,389.127 53.092,385.46 53.5,382C 52.1095,380.98 50.6095,380.147 49,379.5C 48.5172,378.552 48.3505,377.552 48.5,376.5C 52.8595,375.993 57.1928,375.327 61.5,374.5C 61.3433,375.873 61.51,377.207 62,378.5C 64.5308,376.097 67.3641,374.43 70.5,373.5 Z"/></g>
<g><path style="opacity:0.842" fill="#463024" d="M 128.5,373.5 C 143.537,375.817 148.704,384.15 144,398.5C 138.525,407.777 130.692,410.61 120.5,407C 114.666,403.339 111.666,398.006 111.5,391C 112.71,380.625 118.376,374.792 128.5,373.5 Z M 124.5,378.5 C 129.704,378.074 133.538,380.074 136,384.5C 136.441,388.69 136.941,392.69 137.5,396.5C 133.539,405.041 128.372,405.708 122,398.5C 121.5,397 121,395.5 120.5,394C 120.561,390.324 120.727,386.49 121,382.5C 122.376,381.295 123.542,379.962 124.5,378.5 Z"/></g>
<g><path style="opacity:0.824" fill="#463124" d="M 206.5,373.5 C 211.004,374.417 215.504,375.417 220,376.5C 221.812,376.507 223.312,375.84 224.5,374.5C 226.286,378.902 224.786,381.569 220,382.5C 220.449,387.618 218.616,391.952 214.5,395.5C 211.038,398.111 207.371,399.111 203.5,398.5C 203.5,399.5 203.5,400.5 203.5,401.5C 209.584,401.787 215.584,402.62 221.5,404C 225.698,410.064 225.364,415.897 220.5,421.5C 217.167,423.5 213.833,425.5 210.5,427.5C 206.555,426.732 202.555,426.232 198.5,426C 196.725,424.561 194.725,423.561 192.5,423C 193.634,421.984 193.301,421.317 191.5,421C 191.579,418.695 191.746,416.195 192,413.5C 193.535,411.326 195.368,409.493 197.5,408C 196.277,406.28 195.277,404.447 194.5,402.5C 195.707,400.551 197.373,399.051 199.5,398C 197.5,397 195.5,396 193.5,395C 194.634,393.984 194.301,393.317 192.5,393C 192.833,392.667 193.167,392.333 193.5,392C 191.398,387.348 192.065,382.848 195.5,378.5C 198.994,376.234 202.66,374.567 206.5,373.5 Z M 204.5,378.5 C 209.553,378.385 212.22,380.885 212.5,386C 212.726,388.151 212.059,390.317 210.5,392.5C 206.259,394.905 202.925,393.739 200.5,389C 200.545,386.364 200.712,383.53 201,380.5C 202.302,379.915 203.469,379.249 204.5,378.5 Z M 201.5,409.5 C 205.258,409.907 208.924,409.907 212.5,409.5C 213.795,410.098 215.128,410.598 216.5,411C 217.293,413.432 217.626,415.766 217.5,418C 212.642,421.821 207.309,422.488 201.5,420C 197.988,416.784 197.988,413.284 201.5,409.5 Z"/></g>
<g><path style="opacity:0.841" fill="#463023" d="M 244.5,373.5 C 255.066,374.582 261.066,380.082 262.5,390C 261.722,397.23 258.389,402.897 252.5,407C 241.305,410.933 232.972,407.6 227.5,397C 225.965,383.89 231.631,376.057 244.5,373.5 Z M 240.5,378.5 C 245.739,377.959 249.572,379.959 252,384.5C 252.791,388.477 253.291,392.144 253.5,395.5C 252.647,402.192 248.981,404.692 242.5,403C 239.277,400.784 237.277,397.784 236.5,394C 237.898,392.351 237.564,391.018 235.5,390C 235.589,385.376 237.256,381.542 240.5,378.5 Z"/></g>
<g><path style="opacity:0.051" fill="#799251" d="M 308.5,379.5 C 309.833,381.833 309.833,384.167 308.5,386.5C 308.15,384.374 308.15,382.041 308.5,379.5 Z"/></g>
<g><path style="opacity:0.02" fill="#665f3a" d="M 312.5,399.5 C 313.833,400.167 313.833,400.167 312.5,399.5 Z"/></g>
<g><path style="opacity:0.106" fill="#7e9654" d="M 272.5,407.5 C 278.026,407.179 283.36,407.512 288.5,408.5C 286.929,409.197 285.429,409.53 284,409.5C 280.065,408.862 276.231,408.196 272.5,407.5 Z"/></g>
<g><path style="opacity:0.106" fill="#7d9453" d="M 328.5,407.5 C 331.713,407.19 334.713,407.523 337.5,408.5C 337.44,409.043 337.107,409.376 336.5,409.5C 333.689,408.92 331.023,408.254 328.5,407.5 Z"/></g>
</svg>
